# xmcd
#
# Track frame offsets: 
#        150
#        14833
#        43938
#        72775
#        97620
#        127908
#        155630
#        180643
#        210920
#        248470
#
# Disc length: 3575 seconds
#
# Revision: 0
# Processed by: cddbd v1.5.2PL0 Copyright (c) Steve Scherf et al.
# Submitted via: ExactAudioCopy v1.3
#
DISCID=790df50a
DTITLE=Buddy Guy - Blues Alive
DYEAR=1992
DGENRE=Chicago Blues, Modern Electric Blues, Electric Blues
TTITLE0=Mary Had A Little Lamb
TTITLE1=Sweet Little Angel
TTITLE2=I Just Want To Make Love To You
TTITLE3=Stormy Monday Blues
TTITLE4=Somebody's Vippin' In
TTITLE5=Sweet Home Chicago
TTITLE6=Hoochie Coochie Man
TTITLE7=Damn Right, I've Got The Blues
TTITLE8=Knock On Wood
TTITLE9=Johnny B. Goode
EXTD=
EXTT0=
EXTT1=
EXTT2=
EXTT3=
EXTT4=
EXTT5=
EXTT6=
EXTT7=
EXTT8=
EXTT9=
PLAYORDER=
